<svg width="17" height="17" viewBox="0 0 17 17" fill="none" xmlns="http://www.w3.org/2000/svg">
<path d="M16.4226 8.04992C16.4226 3.60393 12.8431 -5.53131e-05 8.42811 -5.53131e-05C4.01117 0.000944684 0.431641 3.60393 0.431641 8.05092C0.431641 12.0679 3.35562 15.3979 7.17698 16.0019V10.3769H5.14838V8.05092H7.17898V6.27592C7.17898 4.25893 8.37315 3.14493 10.1989 3.14493C11.0743 3.14493 11.9887 3.30193 11.9887 3.30193V5.28193H10.9803C9.98804 5.28193 9.67825 5.90293 9.67825 6.53992V8.04992H11.8947L11.541 10.3759H9.67725V16.0009C13.4986 15.3969 16.4226 12.0669 16.4226 8.04992Z" fill="white"/>
</svg>
