<svg width="16" height="16" viewBox="0 0 16 16" fill="none" xmlns="http://www.w3.org/2000/svg">
<path d="M15.8612 6.55855C15.9544 7.09552 16.0009 7.63957 16.0001 8.18457C16.0001 10.6186 15.1307 12.6766 13.6177 14.0696H13.6197C12.2966 15.2927 10.4779 16.0007 8.32138 16.0007C6.20111 16.0007 4.16769 15.1578 2.66843 13.6575C1.16918 12.1572 0.326904 10.1223 0.326904 8.00057C0.326904 5.87881 1.16918 3.84396 2.66843 2.34365C4.16769 0.843338 6.20111 0.00047258 8.32138 0.00047258C10.3059 -0.0227861 12.2225 0.723314 13.6697 2.0825L11.3873 4.36653C10.5622 3.57949 9.46109 3.1485 8.32138 3.16651C6.23582 3.16651 4.46404 4.57453 3.83248 6.47055C3.49762 7.46407 3.49762 8.54007 3.83248 9.53359H3.83548C4.47004 11.4266 6.23882 12.8346 8.32438 12.8346C9.40163 12.8346 10.327 12.5586 11.0445 12.0706H11.0415C11.4581 11.7944 11.8145 11.4366 12.0891 11.0188C12.3638 10.601 12.5509 10.1318 12.6394 9.63959H8.32138V6.55955H15.8612V6.55855Z" fill="white"/>
</svg>
