<svg width="14" height="14" viewBox="0 0 14 14" fill="none" xmlns="http://www.w3.org/2000/svg">
<path d="M1.75 8.75H4.375C4.60706 8.75 4.82962 8.84219 4.99372 9.00628C5.15781 9.17038 5.25 9.39294 5.25 9.625V12.25C5.25 12.4821 5.15781 12.7046 4.99372 12.8687C4.82962 13.0328 4.60706 13.125 4.375 13.125H1.75C1.51794 13.125 1.29538 13.0328 1.13128 12.8687C0.967187 12.7046 0.875 12.4821 0.875 12.25V9.625C0.875 9.39294 0.967187 9.17038 1.13128 9.00628C1.29538 8.84219 1.51794 8.75 1.75 8.75ZM9.625 0.875H12.25C12.4821 0.875 12.7046 0.967187 12.8687 1.13128C13.0328 1.29538 13.125 1.51794 13.125 1.75V4.375C13.125 4.60706 13.0328 4.82962 12.8687 4.99372C12.7046 5.15781 12.4821 5.25 12.25 5.25H9.625C9.39294 5.25 9.17038 5.15781 9.00628 4.99372C8.84219 4.82962 8.75 4.60706 8.75 4.375V1.75C8.75 1.51794 8.84219 1.29538 9.00628 1.13128C9.17038 0.967187 9.39294 0.875 9.625 0.875ZM9.625 8.75C9.39294 8.75 9.17038 8.84219 9.00628 9.00628C8.84219 9.17038 8.75 9.39294 8.75 9.625V12.25C8.75 12.4821 8.84219 12.7046 9.00628 12.8687C9.17038 13.0328 9.39294 13.125 9.625 13.125H12.25C12.4821 13.125 12.7046 13.0328 12.8687 12.8687C13.0328 12.7046 13.125 12.4821 13.125 12.25V9.625C13.125 9.39294 13.0328 9.17038 12.8687 9.00628C12.7046 8.84219 12.4821 8.75 12.25 8.75H9.625ZM9.625 0C9.16087 0 8.71575 0.184374 8.38756 0.512563C8.05937 0.840752 7.875 1.28587 7.875 1.75V4.375C7.875 4.83913 8.05937 5.28425 8.38756 5.61244C8.71575 5.94063 9.16087 6.125 9.625 6.125H12.25C12.7141 6.125 13.1592 5.94063 13.4874 5.61244C13.8156 5.28425 14 4.83913 14 4.375V1.75C14 1.28587 13.8156 0.840752 13.4874 0.512563C13.1592 0.184374 12.7141 0 12.25 0L9.625 0ZM1.75 7.875C1.28587 7.875 0.840752 8.05937 0.512563 8.38756C0.184374 8.71575 0 9.16087 0 9.625V12.25C0 12.7141 0.184374 13.1592 0.512563 13.4874C0.840752 13.8156 1.28587 14 1.75 14H4.375C4.83913 14 5.28425 13.8156 5.61244 13.4874C5.94063 13.1592 6.125 12.7141 6.125 12.25V9.625C6.125 9.16087 5.94063 8.71575 5.61244 8.38756C5.28425 8.05937 4.83913 7.875 4.375 7.875H1.75ZM7.875 9.625C7.875 9.16087 8.05937 8.71575 8.38756 8.38756C8.71575 8.05937 9.16087 7.875 9.625 7.875H12.25C12.7141 7.875 13.1592 8.05937 13.4874 8.38756C13.8156 8.71575 14 9.16087 14 9.625V12.25C14 12.7141 13.8156 13.1592 13.4874 13.4874C13.1592 13.8156 12.7141 14 12.25 14H9.625C9.16087 14 8.71575 13.8156 8.38756 13.4874C8.05937 13.1592 7.875 12.7141 7.875 12.25V9.625Z" fill="#00044A"/>
<path d="M0.512563 0.512563C0.840752 0.184374 1.28587 0 1.75 0H4.375C4.83913 0 5.28425 0.184374 5.61244 0.512563C5.94063 0.840752 6.125 1.28587 6.125 1.75V4.375C6.125 4.83913 5.94063 5.28425 5.61244 5.61244C5.28425 5.94063 4.83913 6.125 4.375 6.125H1.75C1.28587 6.125 0.840752 5.94063 0.512563 5.61244C0.184375 5.28425 0 4.83913 0 4.375V1.75C0 1.28587 0.184375 0.840752 0.512563 0.512563Z" fill="#00044A"/>
</svg>
