<svg width="17" height="16" viewBox="0 0 17 16" fill="none" xmlns="http://www.w3.org/2000/svg">
<path d="M0.37915 1.14596C0.37915 0.512952 0.904789 -5.53131e-05 1.55334 -5.53131e-05H15.194C15.8425 -5.53131e-05 16.3681 0.512952 16.3681 1.14596V14.8542C16.3681 15.4872 15.8425 16.0002 15.194 16.0002H1.55334C0.904789 16.0002 0.37915 15.4872 0.37915 14.8542V1.14596ZM5.31875 13.3941V6.16904H2.9194V13.3941H5.31875ZM4.11958 5.18202C4.956 5.18202 5.47664 4.62801 5.47664 3.934C5.46165 3.22499 4.957 2.68598 4.13557 2.68598C3.31413 2.68598 2.7775 3.22599 2.7775 3.934C2.7775 4.62801 3.29814 5.18202 4.10359 5.18202H4.11958ZM9.0242 13.3941V9.35908C9.0242 9.14308 9.04019 8.92708 9.10415 8.77307C9.27703 8.34207 9.67176 7.89506 10.3353 7.89506C11.2037 7.89506 11.5505 8.55707 11.5505 9.52909V13.3941H13.9498V9.25008C13.9498 7.03005 12.7666 5.99803 11.1877 5.99803C9.91459 5.99803 9.34398 6.69804 9.0242 7.19105V7.21605H9.00821C9.01352 7.2077 9.01885 7.19937 9.0242 7.19105V6.16904H6.62585C6.65583 6.84705 6.62585 13.3941 6.62585 13.3941H9.0242Z" fill="white"/>
</svg>
