<svg width="12" height="11" viewBox="0 0 12 11" fill="none" xmlns="http://www.w3.org/2000/svg">
<path d="M6.00001 9.66669H2.24999C2.01999 9.66669 1.83334 9.48001 1.83334 9.25003V1.75001C1.83334 1.52001 2.02001 1.33335 2.24999 1.33335H6.00001C6.23042 1.33335 6.41667 1.14711 6.41667 0.916697C6.41667 0.686283 6.23042 0.5 6.00001 0.5H2.24999C1.56083 0.5 1 1.06085 1 1.75001V9.25001C1 9.93917 1.56083 10.5 2.24999 10.5H6.00001C6.23042 10.5 6.41667 10.3138 6.41667 10.0833C6.41667 9.85293 6.23042 9.66669 6.00001 9.66669Z" fill="#00044A" stroke="#00044A" stroke-width="0.2"/>
<path d="M10.9092 5.20333L8.37584 2.70333C8.2125 2.54166 7.94834 2.54376 7.78667 2.7075C7.625 2.87125 7.62667 3.135 7.79085 3.29667L9.60125 5.08333H4.75C4.51959 5.08333 4.33334 5.26957 4.33334 5.49998C4.33334 5.7304 4.51959 5.91666 4.75 5.91666H9.60125L7.79085 7.70332C7.62669 7.86499 7.62543 8.12874 7.78667 8.29249C7.86833 8.37499 7.97584 8.41665 8.08334 8.41665C8.18918 8.41665 8.295 8.37665 8.37584 8.29664L10.9092 5.79663C10.9883 5.71831 11.0333 5.61163 11.0333 5.49996C11.0333 5.38834 10.9888 5.28209 10.9092 5.20333Z" fill="#00044A" stroke="#00044A" stroke-width="0.2"/>
</svg>
