<svg id="Bold" enable-background="new 0 0 24 24" height="512" viewBox="0 0 24 24" width="512" xmlns="http://www.w3.org/2000/svg"><path d="m7.996 21.324c0 .695-.521.982-1.098.695l-6.228-3.113c-.188-.089-.346-.238-.475-.447s-.195-.417-.195-.622v-15.227c0-.568.341-.825 1.112-.441l6.844 3.42c.099.099.026-.581.04 15.735zm.857-14.32 7.152 11.568-7.152-3.553zm15.147.241v14.079c0 .223-.062.403-.188.541-.125.138-.295.207-.509.207s-.424-.058-.629-.174l-5.906-2.939zm-.04-1.603c0 .027-1.145 1.895-3.435 5.603s-3.632 5.88-4.025 6.512l-5.223-8.469 4.339-7.039c.236-.388.72-.456 1.045-.294l7.246 3.607c.035.017.053.044.053.08z"/></svg>