<svg width="14" height="16" viewBox="0 0 14 16" fill="none" xmlns="http://www.w3.org/2000/svg">
<path d="M7 16.0009C7.53043 16.0009 8.03914 15.7902 8.41421 15.4151C8.78929 15.04 9 14.5313 9 14.0009H5C5 14.5313 5.21071 15.04 5.58579 15.4151C5.96086 15.7902 6.46957 16.0009 7 16.0009ZM7 1.91887L6.203 2.07987C5.29896 2.26408 4.48633 2.75498 3.90265 3.4695C3.31897 4.18402 3.0001 5.07826 3 6.00087C3 6.62887 2.866 8.19787 2.541 9.74287C2.381 10.5099 2.165 11.3089 1.878 12.0009H12.122C11.835 11.3089 11.62 10.5109 11.459 9.74287C11.134 8.19787 11 6.62887 11 6.00087C10.9997 5.07843 10.6807 4.18442 10.097 3.47011C9.51337 2.7558 8.70087 2.26504 7.797 2.08087L7 1.91787V1.91887ZM13.22 12.0009C13.443 12.4479 13.701 12.8019 14 13.0009H0C0.299 12.8019 0.557 12.4479 0.78 12.0009C1.68 10.2009 2 6.88088 2 6.00087C2 3.58087 3.72 1.56087 6.005 1.09987C5.99104 0.960829 6.00638 0.820401 6.05003 0.687648C6.09368 0.554895 6.16467 0.432765 6.25842 0.329133C6.35217 0.225501 6.4666 0.142669 6.59433 0.0859795C6.72206 0.0292895 6.86026 0 7 0C7.13974 0 7.27794 0.0292895 7.40567 0.0859795C7.5334 0.142669 7.64783 0.225501 7.74158 0.329133C7.83533 0.432765 7.90632 0.554895 7.94997 0.687648C7.99362 0.820401 8.00896 0.960829 7.995 1.09987C9.12528 1.32978 10.1414 1.94324 10.8712 2.83638C11.6011 3.72952 11.9999 4.84745 12 6.00087C12 6.88088 12.32 10.2009 13.22 12.0009Z" fill="#00044A"/>
</svg>
