<svg width="8" height="13" viewBox="0 0 8 13" fill="none" xmlns="http://www.w3.org/2000/svg">
<path d="M6.85839 5.64347L1.51831 0.307761C1.3948 0.184253 1.22993 0.116211 1.05412 0.116211C0.878323 0.116211 0.713448 0.184253 0.589939 0.307761L0.196679 0.700608C-0.0592182 0.956593 -0.0592182 1.37264 0.196679 1.62824L4.68088 6.10884L0.191703 10.5944C0.0681937 10.7179 0 10.8826 0 11.0581C0 11.2339 0.0681937 11.3985 0.191703 11.5221L0.584963 11.9149C0.70857 12.0384 0.873348 12.1064 1.04915 12.1064C1.22495 12.1064 1.38982 12.0384 1.51333 11.9149L6.85839 6.57431C6.98219 6.45042 7.05019 6.28499 7.0498 6.10914C7.05019 5.9326 6.98219 5.76727 6.85839 5.64347Z" fill="#E8345D"/>
</svg>
