<svg width="8" height="13" viewBox="0 0 8 13" fill="none" xmlns="http://www.w3.org/2000/svg">
<path d="M0.191295 6.57919L5.53147 11.9149C5.65498 12.0384 5.81986 12.1064 5.99566 12.1064C6.17147 12.1064 6.33634 12.0384 6.45986 11.9149L6.85312 11.522C7.10902 11.2661 7.10902 10.85 6.85312 10.5944L2.36885 6.11381L6.8581 1.62824C6.98161 1.50473 7.04981 1.34008 7.04981 1.16452C7.04981 0.988762 6.98161 0.824117 6.8581 0.700511L6.46483 0.307761C6.34122 0.184253 6.17644 0.116212 6.00064 0.116212C5.82483 0.116212 5.65996 0.184253 5.53645 0.307761L0.191295 5.64834C0.0674902 5.77224 -0.000509199 5.93767 -0.000119162 6.11352C-0.00050923 6.29006 0.0674901 6.45539 0.191295 6.57919Z" fill="#E8345D"/>
</svg>
