<svg width="17" height="17" viewBox="0 0 17 17" fill="none" xmlns="http://www.w3.org/2000/svg">
<path d="M8.51817 1.019C8.3468 1.00635 8.17502 1.00001 8.00317 1V0C8.19971 9.58276e-05 8.39618 0.00743414 8.59217 0.022L8.51817 1.019ZM10.5222 1.469C10.2016 1.3453 9.8724 1.24537 9.53717 1.17L9.75617 0.194C10.1392 0.28 10.5162 0.394 10.8822 0.536L10.5222 1.469ZM11.8922 2.179C11.7492 2.08365 11.6028 1.99359 11.4532 1.909L11.9462 1.039C12.2881 1.23274 12.6153 1.45132 12.9252 1.693L12.3102 2.482C12.1746 2.37623 12.0352 2.2755 11.8922 2.18V2.179ZM13.7262 3.969C13.5284 3.68798 13.3101 3.42192 13.0732 3.173L13.7972 2.483C14.0672 2.768 14.3172 3.073 14.5442 3.393L13.7262 3.969ZM14.4702 5.321C14.4045 5.16246 14.3332 5.00636 14.2562 4.853L15.1492 4.403C15.3258 4.75409 15.4762 5.11774 15.5992 5.491L14.6492 5.804C14.5954 5.64087 14.5357 5.47976 14.4702 5.321ZM15.0002 7.828C14.9921 7.48434 14.9587 7.14174 14.9002 6.803L15.8852 6.633C15.9522 7.019 15.9912 7.411 16.0012 7.803L15.0012 7.828H15.0002ZM14.8692 9.366C14.9022 9.196 14.9292 9.027 14.9502 8.856L15.9432 8.979C15.8951 9.36915 15.8183 9.75521 15.7132 10.134L14.7492 9.867C14.7952 9.702 14.8352 9.535 14.8692 9.366ZM13.9172 11.745C14.1012 11.455 14.2632 11.151 14.4032 10.837L15.3172 11.242C15.1572 11.602 14.9722 11.948 14.7622 12.28L13.9172 11.745ZM12.9532 12.95C13.0752 12.828 13.1922 12.702 13.3032 12.572L14.0612 13.225C13.9328 13.3738 13.7991 13.5179 13.6602 13.657L12.9532 12.95Z" fill="#00044A"/>
<path d="M8.00312 1C6.852 1.00008 5.71867 1.28405 4.7035 1.82674C3.68833 2.36943 2.82267 3.1541 2.18318 4.11125C1.54369 5.0684 1.15012 6.16848 1.03732 7.31406C0.924518 8.45964 1.09597 9.61536 1.5365 10.6789C1.97703 11.7423 2.67303 12.6808 3.56285 13.4111C4.45267 14.1413 5.50886 14.6409 6.63786 14.8655C7.76686 15.0901 8.93382 15.0328 10.0354 14.6987C11.1369 14.3645 12.1391 13.7639 12.9531 12.95L13.6601 13.657C12.7299 14.5878 11.5844 15.2747 10.3252 15.657C9.06595 16.0393 7.73189 16.105 6.44119 15.8485C5.15048 15.5919 3.94298 15.021 2.92567 14.1862C1.90836 13.3515 1.11266 12.2787 0.609058 11.0629C0.105457 9.84711 -0.0904899 8.52588 0.0385779 7.21627C0.167646 5.90666 0.617743 4.6491 1.34899 3.55502C2.08024 2.46094 3.07006 1.56411 4.23075 0.944003C5.39144 0.323895 6.68717 -0.000348732 8.00312 2.81458e-07V1Z" fill="#00044A"/>
<path d="M7.50317 3C7.63578 3 7.76296 3.05268 7.85673 3.14645C7.9505 3.24021 8.00317 3.36739 8.00317 3.5V8.71L11.2512 10.566C11.363 10.6334 11.4439 10.7419 11.4768 10.8683C11.5097 10.9946 11.4918 11.1288 11.427 11.2422C11.3622 11.3556 11.2557 11.4391 11.1302 11.4749C11.0046 11.5108 10.87 11.4961 10.7552 11.434L7.25517 9.434C7.17865 9.39029 7.11503 9.32712 7.07078 9.25091C7.02653 9.17469 7.0032 9.08813 7.00317 9V3.5C7.00317 3.36739 7.05585 3.24021 7.14962 3.14645C7.24339 3.05268 7.37057 3 7.50317 3Z" fill="#00044A"/>
</svg>
