<svg width="16" height="16" viewBox="0 0 16 16" fill="none" xmlns="http://www.w3.org/2000/svg">
<g clip-path="url(#clip0)">
<path d="M12.166 8.94C11.642 10.002 10.932 11.06 10.206 12.01C9.5173 12.9056 8.7809 13.7635 8 14.58C7.21908 13.7635 6.48268 12.9056 5.794 12.01C5.068 11.06 4.358 10.002 3.834 8.94C3.304 7.867 3 6.862 3 6C3 4.67392 3.52678 3.40215 4.46447 2.46447C5.40215 1.52678 6.67392 1 8 1C9.32608 1 10.5979 1.52678 11.5355 2.46447C12.4732 3.40215 13 4.67392 13 6C13 6.862 12.695 7.867 12.166 8.94ZM8 16C8 16 14 10.314 14 6C14 4.4087 13.3679 2.88258 12.2426 1.75736C11.1174 0.632141 9.5913 0 8 0C6.4087 0 4.88258 0.632141 3.75736 1.75736C2.63214 2.88258 2 4.4087 2 6C2 10.314 8 16 8 16Z" fill="#6F32E2"/>
<path d="M8 8C7.46957 8 6.96086 7.78929 6.58579 7.41421C6.21071 7.03914 6 6.53043 6 6C6 5.46957 6.21071 4.96086 6.58579 4.58579C6.96086 4.21071 7.46957 4 8 4C8.53043 4 9.03914 4.21071 9.41421 4.58579C9.78929 4.96086 10 5.46957 10 6C10 6.53043 9.78929 7.03914 9.41421 7.41421C9.03914 7.78929 8.53043 8 8 8ZM8 9C8.79565 9 9.55871 8.68393 10.1213 8.12132C10.6839 7.55871 11 6.79565 11 6C11 5.20435 10.6839 4.44129 10.1213 3.87868C9.55871 3.31607 8.79565 3 8 3C7.20435 3 6.44129 3.31607 5.87868 3.87868C5.31607 4.44129 5 5.20435 5 6C5 6.79565 5.31607 7.55871 5.87868 8.12132C6.44129 8.68393 7.20435 9 8 9Z" fill="#6F32E2"/>
</g>
<defs>
<clipPath id="clip0">
<rect width="16" height="16" fill="white"/>
</clipPath>
</defs>
</svg>
