<svg width="12" height="9" viewBox="0 0 12 9" fill="none" xmlns="http://www.w3.org/2000/svg">
<path d="M2.38681 1.01755L2.38684 1.01759L6.33374 5.75558L10.2804 1.01839C10.4228 0.847118 10.6205 0.750686 10.8291 0.750455C11.0376 0.750223 11.2354 0.846216 11.3777 1.01703L11.3779 1.01724C11.6517 1.34667 11.6517 1.86528 11.3779 2.19471L11.3777 2.19492L6.8822 7.59127L2.38681 1.01755ZM2.38681 1.01755C2.24431 0.846552 2.04669 0.75 1.83782 0.75C1.62895 0.75 1.43132 0.846552 1.28882 1.01755L1.28882 1.01755M2.38681 1.01755L1.28882 1.01755M1.28882 1.01755L1.28862 1.01779M1.28882 1.01755L1.28862 1.01779M1.28862 1.01779C1.01479 1.34722 1.01479 1.86523 1.28862 2.19466L1.2888 2.19487M1.28862 1.01779L1.2888 2.19487M1.2888 2.19487L5.78431 7.59127M1.2888 2.19487L5.78431 7.59127M5.78431 7.59127C5.78434 7.59131 5.78437 7.59135 5.7844 7.59138L5.78431 7.59127ZM11.1856 1.17705C10.9893 0.941398 10.6695 0.941398 10.4727 1.1782L11.1856 1.17705Z" fill="#E8345D" stroke="#E8345D" stroke-width="0.5"/>
</svg>
