<svg width="12" height="12" viewBox="0 0 12 12" fill="none" xmlns="http://www.w3.org/2000/svg">
<path d="M10.4999 5.49999H6.50001V1.49997C6.50001 1.22403 6.27598 1 5.99995 1C5.72402 1 5.49999 1.22403 5.49999 1.49997V5.49999H1.49997C1.22403 5.49999 1 5.72402 1 5.99995C1 6.27598 1.22403 6.50001 1.49997 6.50001H5.49999V10.4999C5.49999 10.776 5.72402 11 5.99995 11C6.27598 11 6.50001 10.776 6.50001 10.4999V6.50001H10.4999C10.776 6.50001 11 6.27598 11 5.99995C11 5.72402 10.776 5.49999 10.4999 5.49999Z" fill="#65D6A0" stroke="#65D6A0"/>
</svg>
