<svg width="21" height="21" viewBox="0 0 21 21" fill="none" xmlns="http://www.w3.org/2000/svg">
<path d="M19.768 18.6486L14.3649 13.2455C15.4115 11.9527 16.0417 10.31 16.0417 8.52085C16.0417 4.3741 12.6676 1 8.52081 1C4.37406 1 1 4.37406 1 8.52081C1 12.6676 4.3741 16.0417 8.52085 16.0417C10.31 16.0417 11.9527 15.4115 13.2455 14.3649L18.6486 19.768C18.803 19.9224 19.0057 20 19.2083 20C19.411 20 19.6137 19.9224 19.7681 19.768C20.0776 19.4585 20.0776 18.9582 19.768 18.6486ZM8.52085 14.4583C5.2465 14.4583 2.58335 11.7952 2.58335 8.52081C2.58335 5.24646 5.2465 2.58331 8.52085 2.58331C11.7952 2.58331 14.4583 5.24646 14.4583 8.52081C14.4583 11.7952 11.7952 14.4583 8.52085 14.4583Z" fill="white" stroke="white"/>
</svg>
