<svg width="12" height="11" viewBox="0 0 12 11" fill="none" xmlns="http://www.w3.org/2000/svg">
<path d="M6.31379 10.5H5.68619C5.17859 10.5 4.76561 10.087 4.76561 9.57943V9.36711C4.5498 9.29816 4.34014 9.21113 4.13871 9.10689L3.98824 9.25736C3.62381 9.62225 3.04004 9.61154 2.68619 9.25723L2.24262 8.81367C1.88814 8.45959 1.87795 7.87602 2.24273 7.51162L2.39309 7.36127C2.28885 7.15984 2.20184 6.95021 2.13287 6.73438H1.92057C1.41299 6.73438 1 6.32141 1 5.81381V5.18619C1 4.67859 1.41299 4.26562 1.92059 4.26562H2.13289C2.20186 4.0498 2.28887 3.84016 2.39311 3.63873L2.24264 3.48828C1.87807 3.1241 1.88813 2.54047 2.24275 2.18623L2.68637 1.74264C3.04104 1.38748 3.62467 1.37861 3.9884 1.74275L4.13873 1.89309C4.34016 1.78887 4.54982 1.70184 4.76562 1.63287V1.42057C4.76562 0.912969 5.17859 0.5 5.68621 0.5H6.31381C6.82141 0.5 7.23438 0.912969 7.23438 1.42057V1.63289C7.45018 1.70184 7.65984 1.78887 7.86127 1.89311L8.01174 1.74264C8.37617 1.37775 8.95994 1.38846 9.31379 1.74277L9.75736 2.18633C10.1118 2.54041 10.122 3.12398 9.75725 3.48838L9.60689 3.63873C9.71113 3.84016 9.79814 4.04979 9.86711 4.26562H10.0794C10.587 4.26562 11 4.67859 11 5.18619V5.81381C11 6.32141 10.587 6.73438 10.0794 6.73438H9.86711C9.79814 6.9502 9.71113 7.15984 9.60689 7.36127L9.75736 7.51174C10.1219 7.87592 10.1119 8.45955 9.75725 8.81379L9.31363 9.25738C8.95896 9.61254 8.37533 9.62141 8.0116 9.25727L7.86127 9.10693C7.65984 9.21115 7.45018 9.29818 7.23438 9.36715V9.57947C7.23438 10.087 6.82141 10.5 6.31379 10.5ZM4.23666 8.4916C4.51648 8.65709 4.81766 8.78211 5.1318 8.86318C5.26117 8.89656 5.35156 9.01324 5.35156 9.14686V9.57943C5.35156 9.76395 5.5017 9.91406 5.68621 9.91406H6.31381C6.49832 9.91406 6.64846 9.76395 6.64846 9.57943V9.14686C6.64846 9.01324 6.73885 8.89656 6.86822 8.86318C7.18236 8.78211 7.48354 8.65709 7.76336 8.4916C7.8785 8.42352 8.02508 8.44203 8.11967 8.53662L8.42607 8.84305C8.55818 8.97531 8.77033 8.97225 8.8992 8.84318L9.34309 8.39932C9.47164 8.27092 9.47594 8.05873 9.3432 7.92617L9.03666 7.61963C8.94209 7.52506 8.92357 7.37846 8.99164 7.26334C9.15713 6.98353 9.28213 6.68236 9.3632 6.3682C9.3966 6.23883 9.51328 6.14846 9.64688 6.14846H10.0794C10.2639 6.14846 10.4141 5.99834 10.4141 5.81383V5.18621C10.4141 5.0017 10.2639 4.85158 10.0794 4.85158H9.64688C9.51326 4.85158 9.3966 4.76119 9.3632 4.63184C9.28213 4.31768 9.15711 4.0165 8.99164 3.7367C8.92357 3.62158 8.94209 3.47498 9.03666 3.38041L9.34309 3.07398C9.47555 2.94168 9.47209 2.72957 9.3432 2.60084L8.89936 2.15699C8.7707 2.02816 8.55852 2.02439 8.42621 2.15688L8.11969 2.46342C8.02512 2.55801 7.87848 2.57652 7.76338 2.50844C7.48355 2.34295 7.18238 2.21793 6.86824 2.13686C6.73887 2.10348 6.64848 1.9868 6.64848 1.85318V1.42057C6.64848 1.23605 6.49834 1.08594 6.31383 1.08594H5.68623C5.50172 1.08594 5.35158 1.23605 5.35158 1.42057V1.85314C5.35158 1.98676 5.26119 2.10344 5.13182 2.13682C4.81768 2.21789 4.5165 2.34291 4.23668 2.5084C4.12152 2.57646 3.97494 2.55795 3.88037 2.46338L3.57396 2.15695C3.44186 2.02469 3.22969 2.02775 3.10084 2.15682L2.65695 2.60068C2.5284 2.72908 2.5241 2.94125 2.65684 3.07383L2.96338 3.38037C3.05795 3.47494 3.07646 3.62154 3.0084 3.73666C2.84291 4.01646 2.71791 4.31764 2.63684 4.6318C2.60344 4.76117 2.48676 4.85154 2.35316 4.85154H1.92059C1.73607 4.85156 1.58594 5.00168 1.58594 5.18619V5.81381C1.58594 5.99832 1.73607 6.14844 1.92059 6.14844H2.35314C2.48676 6.14844 2.60342 6.23883 2.63682 6.36818C2.71789 6.68234 2.84291 6.98352 3.00838 7.26332C3.07645 7.37844 3.05793 7.52504 2.96336 7.61961L2.65693 7.92604C2.52447 8.05834 2.52793 8.27045 2.65682 8.39918L3.10066 8.84303C3.22932 8.97186 3.4415 8.97563 3.57381 8.84314L3.88033 8.5366C3.95002 8.46693 4.095 8.40781 4.23666 8.4916Z" fill="#00044A" stroke="#00044A" stroke-width="0.2"/>
<path d="M6 7.67577C4.80025 7.67577 3.82422 6.69972 3.82422 5.49999C3.82422 4.30026 4.80025 3.32421 6 3.32421C7.19975 3.32421 8.17578 4.30026 8.17578 5.49999C8.17578 6.69972 7.19975 7.67577 6 7.67577ZM6 3.91014C5.12334 3.91014 4.41016 4.62335 4.41016 5.49999C4.41016 6.37663 5.12336 7.08983 6 7.08983C6.87664 7.08983 7.58984 6.37663 7.58984 5.49999C7.58984 4.62335 6.87666 3.91014 6 3.91014Z" fill="#00044A" stroke="#00044A" stroke-width="0.2"/>
</svg>
