<svg width="48" height="48" viewBox="0 0 48 48" fill="none" xmlns="http://www.w3.org/2000/svg"> <path d="M24 0C10.7669 0 0 10.7669 0 24C0 37.2331 10.7669 48 24 48C37.2331 48 48 37.2331 48 24C48 10.7669 37.2331 0 24 0ZM37.4135 17.6842L22.0752 32.9023C21.1729 33.8045 19.7293 33.8647 18.7669 32.9624L10.6466 25.5639C9.68421 24.6617 9.62406 23.1579 10.4662 22.1955C11.3684 21.2331 12.8722 21.1729 13.8346 22.0752L20.2707 27.9699L33.985 14.2556C34.9474 13.2932 36.4511 13.2932 37.4135 14.2556C38.3759 15.218 38.3759 16.7218 37.4135 17.6842Z" fill="#6F32E2"/> </svg>