<svg width="17" height="13" viewBox="0 0 17 13" fill="none" xmlns="http://www.w3.org/2000/svg">
<path d="M5.42782 13.0009C11.4617 13.0009 14.7624 7.9978 14.7624 3.66673C14.7624 3.52673 14.7624 3.38473 14.7564 3.24473C15.399 2.77921 15.9536 2.20286 16.3943 1.5427C15.794 1.80756 15.1579 1.98211 14.5066 2.06071C15.1926 1.65034 15.7065 1.00466 15.9526 0.243681C15.308 0.625811 14.6025 0.894064 13.867 1.03669C13.3725 0.509709 12.7182 0.160597 12.0054 0.0434351C11.2925 -0.073727 10.561 0.0475991 9.92406 0.38862C9.28712 0.729641 8.78032 1.27133 8.48217 1.92977C8.18401 2.58821 8.11115 3.32666 8.27486 4.03074C6.9705 3.96529 5.69445 3.6262 4.52948 3.03547C3.36451 2.44473 2.33663 1.61555 1.51251 0.601686C1.09414 1.32478 0.966461 2.18011 1.1554 2.99399C1.34435 3.80787 1.83574 4.51928 2.52981 4.98375C2.00971 4.96607 1.50104 4.82631 1.04483 4.57575V4.62075C1.04573 5.37824 1.30796 6.11219 1.7872 6.69854C2.26643 7.28489 2.93328 7.68767 3.67502 7.8388C3.39348 7.91641 3.10265 7.95511 2.81062 7.9538C2.60474 7.95443 2.39928 7.93534 2.19704 7.8968C2.40668 8.54887 2.81489 9.11898 3.36448 9.5273C3.91408 9.93562 4.57754 10.1617 5.26193 10.1738C4.09929 11.0876 2.66312 11.5833 1.18474 11.5809C0.924237 11.582 0.663919 11.5669 0.405273 11.5359C1.90576 12.4931 3.64834 13.0014 5.42782 13.0009Z" fill="white"/>
</svg>
