<svg width="17" height="12" viewBox="0 0 17 12" fill="none" xmlns="http://www.w3.org/2000/svg">
<path d="M8.39801 -1.62125e-05H8.48695C9.30839 0.00298383 13.4705 0.0329844 14.5928 0.334989C14.932 0.427159 15.2412 0.606815 15.4893 0.856004C15.7374 1.10519 15.9159 1.41519 16.0068 1.75501C16.1077 2.13501 16.1787 2.63802 16.2266 3.15703L16.2366 3.26103L16.2586 3.52103L16.2666 3.62504C16.3316 4.53905 16.3396 5.39506 16.3406 5.58206V5.65707C16.3396 5.85107 16.3306 6.76508 16.2586 7.7171L16.2506 7.8221L16.2416 7.9261C16.1917 8.49811 16.1177 9.06612 16.0068 9.48412C15.9162 9.82408 15.7378 10.1342 15.4896 10.3835C15.2415 10.6327 14.9322 10.8122 14.5928 10.9041C13.4336 11.2161 9.02758 11.2381 8.417 11.2391H8.2751C7.96631 11.2391 6.68919 11.2331 5.35011 11.1871L5.18022 11.1811L5.09328 11.1771L4.9224 11.1701L4.75152 11.1631C3.64228 11.1141 2.58601 11.0351 2.09934 10.9031C1.76006 10.8113 1.45085 10.6319 1.20268 10.3829C0.954509 10.1338 0.776095 9.82389 0.685311 9.48412C0.574387 9.06712 0.500438 8.49811 0.450472 7.9261L0.442477 7.8211L0.434483 7.7171C0.385164 7.03948 0.357835 6.36045 0.352539 5.68107L0.352539 5.55906C0.354538 5.34406 0.362532 4.60105 0.416495 3.78104L0.42349 3.67804L0.426488 3.62604L0.434483 3.52203L0.456468 3.26203L0.466461 3.15803C0.514428 2.63902 0.585379 2.13502 0.68631 1.75601C0.776941 1.41605 0.955287 1.10591 1.20347 0.856678C1.45165 0.607446 1.76094 0.427882 2.10034 0.335989C2.587 0.205987 3.64328 0.125986 4.75252 0.075985L4.9224 0.0689849L5.09428 0.0629848L5.18022 0.0599847L5.35111 0.0529847C6.30216 0.0220254 7.2536 0.00468995 8.20515 0.000983849H8.39801V-1.62125e-05ZM6.74815 3.21003V8.0281L10.9023 5.62007L6.74815 3.21003Z" fill="white"/>
</svg>
